<svg width="287" height="171" viewBox="0 0 287 171" fill="none" xmlns="http://www.w3.org/2000/svg">
<g clip-path="url(#clip0)">
<path d="M219.734 169.066C216.06 165.972 213.828 161.084 214.413 156.326C214.998 151.567 218.624 147.193 223.326 146.182C228.028 145.172 233.389 147.969 234.817 152.547C235.603 143.721 236.509 134.525 241.217 127.009C245.481 120.203 252.865 115.334 260.868 114.462C268.871 113.591 277.298 116.882 282.289 123.177C287.28 129.472 288.502 138.624 285.006 145.851C282.431 151.175 277.687 155.137 272.716 158.361C256.653 168.689 237.388 172.889 218.465 170.188L219.734 169.066Z" fill="#9D9D9D"/>
<path d="M274.375 117.064C267.771 122.424 261.713 128.419 256.288 134.962C247.798 145.167 240.928 156.609 235.917 168.888C235.55 169.784 237.01 170.174 237.373 169.288C245.572 149.331 258.66 131.742 275.442 118.128C276.196 117.516 275.122 116.457 274.375 117.064Z" fill="white"/>
<path d="M92.3899 168.226C97.4367 163.976 100.502 157.262 99.6982 150.726C98.8943 144.191 93.9151 138.182 87.4563 136.794C80.9976 135.406 73.635 139.248 71.6732 145.536C70.5936 133.414 69.3495 120.783 62.8823 110.46C57.0265 101.112 46.884 94.4236 35.8919 93.2271C24.8997 92.0305 13.3264 96.5498 6.47105 105.196C-0.384348 113.843 -2.06286 126.412 2.73848 136.339C6.27545 143.652 12.7918 149.094 19.6193 153.521C41.4015 167.647 68.4222 173.538 94.1329 169.767" fill="#9D9D9D"/>
<path d="M17.341 96.8004C26.4109 104.163 34.7315 112.397 42.1826 121.384C49.6349 130.361 56.1958 140.038 61.7732 150.279C64.8907 156.023 67.6912 161.932 70.1623 167.981C70.6661 169.211 68.6613 169.747 68.1631 168.53C63.7862 157.867 58.3712 147.656 51.9957 138.046C45.6512 128.469 38.3896 119.529 30.3128 111.351C25.7446 106.727 20.9247 102.358 15.875 98.2614C14.8399 97.4214 16.3145 95.9673 17.341 96.8004L17.341 96.8004Z" fill="white"/>
<path d="M206.013 170.626H85.6052V47.5056C85.6052 21.3109 106.989 -7.62939e-06 133.273 -7.62939e-06H158.345C184.629 -7.62939e-06 206.013 21.3109 206.013 47.5056V170.626Z" fill="#9D9D9D"/>
<path d="M180.942 170.626H85.6052V47.5056C85.5789 37.4684 88.7681 27.6849 94.7086 19.5794C94.9276 19.282 95.146 18.9884 95.3713 18.698C98.2446 14.9423 101.664 11.6347 105.517 8.88435C105.734 8.72655 105.953 8.57148 106.174 8.41642C109.398 6.19316 112.885 4.37569 116.557 3.00538C116.775 2.92303 116.997 2.84051 117.219 2.76137C120.539 1.5805 123.981 0.771602 127.481 0.349625C127.698 0.320086 127.921 0.296971 128.143 0.273856C131.554 -0.0895764 134.994 -0.0895764 138.405 0.273856C138.627 0.296971 138.849 0.320083 139.069 0.349941C142.568 0.771946 146.009 1.58074 149.328 2.76139C149.551 2.84053 149.773 2.92304 149.991 3.00555C153.617 4.35857 157.063 6.14892 160.253 8.33664C160.474 8.48834 160.696 8.64341 160.915 8.79847C163.074 10.3347 165.102 12.0461 166.979 13.9153C168.484 15.4145 169.886 17.0127 171.177 18.699C171.401 18.9884 171.62 19.282 171.838 19.579C177.779 27.6845 180.968 37.4682 180.942 47.5056V170.626Z" fill="#CCCCCC"/>
<path d="M173.19 115.559C176.105 115.559 178.468 113.204 178.468 110.298C178.468 107.393 176.105 105.038 173.19 105.038C170.275 105.038 167.911 107.393 167.911 110.298C167.911 113.204 170.275 115.559 173.19 115.559Z" fill="#9556B8"/>
<path d="M196.149 166.938H192.105L190.181 151.392L196.15 151.392L196.149 166.938Z" fill="#FFB8B8"/>
<path d="M189.216 165.786H197.016V170.68H184.305C184.305 170.038 184.432 169.401 184.679 168.808C184.926 168.214 185.287 167.674 185.743 167.22C186.199 166.765 186.741 166.405 187.337 166.159C187.933 165.913 188.571 165.786 189.216 165.786Z" fill="#2F2E41"/>
<path d="M216.272 166.938H212.228L210.304 151.392L216.273 151.392L216.272 166.938Z" fill="#FFB8B8"/>
<path d="M209.339 165.786H217.139V170.68H204.428C204.428 170.038 204.555 169.401 204.802 168.808C205.049 168.214 205.41 167.674 205.866 167.22C206.322 166.765 206.864 166.405 207.46 166.159C208.056 165.913 208.694 165.786 209.339 165.786Z" fill="#2F2E41"/>
<path d="M175.861 111.341C175.57 110.913 175.377 110.428 175.294 109.918C175.212 109.408 175.243 108.887 175.385 108.39C175.527 107.894 175.776 107.434 176.115 107.044C176.455 106.654 176.876 106.342 177.349 106.132L191.097 68.3686L197.862 72.0479L182.165 108.136C182.467 108.951 182.458 109.849 182.14 110.659C181.823 111.468 181.218 112.134 180.441 112.529C179.664 112.924 178.769 113.021 177.924 112.802C177.08 112.583 176.346 112.063 175.861 111.341Z" fill="#FFB8B8"/>
<path d="M214.206 118.436C213.757 118.18 213.369 117.828 213.071 117.406C212.773 116.983 212.571 116.501 212.48 115.993C212.389 115.485 212.411 114.963 212.545 114.464C212.678 113.965 212.919 113.501 213.252 113.105L208.993 73.1579L216.692 73.5084L218.462 112.802C219.092 113.403 219.479 114.213 219.55 115.08C219.621 115.946 219.37 116.808 218.845 117.503C218.321 118.197 217.559 118.676 216.704 118.848C215.849 119.02 214.96 118.874 214.206 118.436Z" fill="#FFB8B8"/>
<path d="M201.925 61.3738C206.399 61.3738 210.027 57.7587 210.027 53.2992C210.027 48.8397 206.399 45.2245 201.925 45.2245C197.45 45.2245 193.822 48.8397 193.822 53.2992C193.822 57.7587 197.45 61.3738 201.925 61.3738Z" fill="#FFB8B8"/>
<path d="M214.155 109.351H189.728L189.757 109.162C189.801 108.879 194.111 80.7443 190.932 71.54C190.613 70.6355 190.641 69.6454 191.011 68.7602C191.38 67.8751 192.066 67.1575 192.934 66.7455H192.934C197.477 64.6134 206.198 61.988 213.559 68.3595C214.642 69.3125 215.488 70.5036 216.029 71.8385C216.571 73.1735 216.793 74.6157 216.679 76.0511L214.155 109.351Z" fill="#9556B8"/>
<path d="M194.419 84.9021L183.422 82.6786L188.577 70.5047C188.885 69.3256 189.65 68.3166 190.704 67.699C191.758 67.0813 193.015 66.9055 194.199 67.2101C195.383 67.5147 196.397 68.2748 197.02 69.3237C197.642 70.3726 197.821 71.6247 197.519 72.8052L194.419 84.9021Z" fill="#9556B8"/>
<path d="M208.504 89.0305L207.843 73.9269C207.342 71.0876 208.972 68.4036 211.481 67.9649C213.99 67.5278 216.439 69.497 216.943 72.3571L219.428 86.4699L208.504 89.0305Z" fill="#9556B8"/>
<path d="M213.342 107.543C217.272 122.461 217.701 141.428 216.641 162.117L211.363 161.459L201.796 122.008L196.518 162.117L190.58 161.788C188.806 140.08 187.079 121.445 189.92 109.187L213.342 107.543Z" fill="#2F2E41"/>
<path d="M207.263 59.5395C205.752 61.1441 202.945 60.2827 202.748 58.0906C202.732 57.9204 202.733 57.7491 202.751 57.5791C202.853 56.6081 203.416 55.7266 203.281 54.7013C203.25 54.4462 203.155 54.203 203.004 53.9949C201.799 52.3874 198.972 54.7138 197.835 53.2587C197.138 52.3664 197.957 50.9616 197.422 49.9643C196.716 48.6481 194.625 49.2974 193.314 48.5766C191.855 47.7746 191.942 45.5437 192.903 44.1868C194.074 42.532 196.127 41.6489 198.155 41.5217C200.184 41.3944 202.198 41.9408 204.091 42.6761C206.242 43.5116 208.375 44.6662 209.699 46.5513C211.309 48.8438 211.464 51.9259 210.659 54.6065C210.169 56.2372 208.498 58.2292 207.263 59.5395Z" fill="#2F2E41"/>
<path d="M277.097 170.837H33.5452C33.4412 170.837 33.3416 170.796 33.2682 170.722C33.1948 170.649 33.1536 170.549 33.1536 170.446C33.1536 170.342 33.1948 170.243 33.2682 170.169C33.3416 170.096 33.4412 170.055 33.5452 170.054H277.097C277.201 170.055 277.301 170.096 277.374 170.169C277.448 170.243 277.489 170.342 277.489 170.446C277.489 170.549 277.448 170.649 277.374 170.722C277.301 170.796 277.201 170.837 277.097 170.837Z" fill="#3F3D56"/>
<path d="M154.716 134.955H111.831C111.266 134.958 110.723 134.738 110.321 134.343C109.919 133.947 109.691 133.409 109.687 132.846V37.4506C109.691 36.8878 109.919 36.3496 110.321 35.9542C110.723 35.5588 111.266 35.3385 111.831 35.3415H154.716C155.281 35.3385 155.824 35.5588 156.226 35.9542C156.628 36.3496 156.856 36.8878 156.86 37.4506V132.846C156.856 133.409 156.628 133.947 156.226 134.343C155.824 134.738 155.281 134.958 154.716 134.955Z" fill="white"/>
<path d="M156.86 66.2086H109.687V66.8661H156.86V66.2086Z" fill="#CCCCCC"/>
<path d="M157.025 103.723H109.852V104.381H157.025V103.723Z" fill="#CCCCCC"/>
<path d="M125.191 35.3415H124.532V135.284H125.191V35.3415Z" fill="#CCCCCC"/>
<path d="M141.686 35.3415H141.026V135.284H141.686V35.3415Z" fill="#CCCCCC"/>
</g>
<defs>
<clipPath id="clip0">
<rect width="287" height="171" fill="white"/>
</clipPath>
</defs>
</svg>
